# xmcd CD database file
#
# Track frame offsets:
#	150
#	30618
#	61076
#	106402
#	129527
#	161895
#	204353
#	248608
#
# Disc length: 3888 seconds
#
# Revision: 0
# Processed by: cddbd v1.5.2PL0 Copyright (c) Steve Scherf et al.
# Submitted via: CDex 1.51
#
DISCID=640f2e08
DTITLE=Antony Braxton - L'Avanguardia del Jazz [CD-22)
DYEAR=2004
DGENRE=Jazz
TTITLE0=Composition n. 115
TTITLE1=Skippy
TTITLE2=Composition n. 112
TTITLE3=Dance Griot
TTITLE4=Composition n. 131
TTITLE5=Briliant Corners
TTITLE6=Composition n. 116
TTITLE7=Conposition n. 122
EXTD=YEAR: 2004
EXTT0=
EXTT1=
EXTT2=
EXTT3=
EXTT4=
EXTT5=
EXTT6=
EXTT7=
PLAYORDER=
